# MagicaVoxel @ Ephtracy

# group
g memEdge

# material
mtllib memEdge.mtl
usemtl palette

# normals
vn -1 0 0
vn 1 0 0
vn 0 0 1
vn 0 0 -1
vn 0 -1 0
vn 0 1 0

# texcoords
vt 0.0410156 0.5
vt 0.994141 0.5

# verts
v -8 0 8
v -8 0 1
v -8 0 -3
v -8 0 -4
v -8 1 8
v -8 1 1
v -8 1 -3
v -8 1 -4
v -5 0 -3
v -5 0 -4
v -5 1 -3
v -5 1 -4
v -1 0 -3
v -1 0 -4
v -1 1 -3
v -1 1 -4
v 3 0 -3
v 3 0 -4
v 3 1 -3
v 3 1 -4
v 7 0 -3
v 7 0 -4
v 7 1 -3
v 7 1 -4
v -6 0 -3
v -6 0 -4
v -6 1 -3
v -6 1 -4
v -2 0 -3
v -2 0 -4
v -2 1 -3
v -2 1 -4
v 2 0 -3
v 2 0 -4
v 2 1 -3
v 2 1 -4
v 6 0 -3
v 6 0 -4
v 6 1 -3
v 6 1 -4
v 8 0 8
v 8 0 1
v 8 0 -3
v 8 0 -4
v 8 1 8
v 8 1 1
v 8 1 -3
v 8 1 -4
v -8 0 8
v -8 1 8
v 8 0 8
v 8 1 8
v -6 0 -3
v -6 1 -3
v -5 0 -3
v -5 1 -3
v -2 0 -3
v -2 1 -3
v -1 0 -3
v -1 1 -3
v 2 0 -3
v 2 1 -3
v 3 0 -3
v 3 1 -3
v 6 0 -3
v 6 1 -3
v 7 0 -3
v 7 1 -3
v -8 0 -4
v -8 1 -4
v -6 0 -4
v -6 1 -4
v -5 0 -4
v -5 1 -4
v -2 0 -4
v -2 1 -4
v -1 0 -4
v -1 1 -4
v 2 0 -4
v 2 1 -4
v 3 0 -4
v 3 1 -4
v 6 0 -4
v 6 1 -4
v 7 0 -4
v 7 1 -4
v 8 0 -4
v 8 1 -4
v -8 0 8
v 8 0 8
v -8 0 1
v -6 0 1
v -5 0 1
v -2 0 1
v -1 0 1
v 2 0 1
v 3 0 1
v 6 0 1
v 7 0 1
v 8 0 1
v -8 0 -3
v -6 0 -3
v -5 0 -3
v -2 0 -3
v -1 0 -3
v 2 0 -3
v 3 0 -3
v 6 0 -3
v 7 0 -3
v 8 0 -3
v -8 0 -4
v -6 0 -4
v -5 0 -4
v -2 0 -4
v -1 0 -4
v 2 0 -4
v 3 0 -4
v 6 0 -4
v 7 0 -4
v 8 0 -4
v -8 1 8
v 8 1 8
v -8 1 1
v -6 1 1
v -5 1 1
v -2 1 1
v -1 1 1
v 2 1 1
v 3 1 1
v 6 1 1
v 7 1 1
v 8 1 1
v -8 1 -3
v -6 1 -3
v -5 1 -3
v -2 1 -3
v -1 1 -3
v 2 1 -3
v 3 1 -3
v 6 1 -3
v 7 1 -3
v 8 1 -3
v -8 1 -4
v -6 1 -4
v -5 1 -4
v -2 1 -4
v -1 1 -4
v 2 1 -4
v 3 1 -4
v 6 1 -4
v 7 1 -4
v 8 1 -4

# faces
f 5/2/1 2/2/1 1/2/1
f 6/1/1 3/1/1 2/1/1
f 6/2/1 2/2/1 5/2/1
f 7/2/1 4/2/1 3/2/1
f 7/1/1 3/1/1 6/1/1
f 8/2/1 4/2/1 7/2/1
f 11/2/1 10/2/1 9/2/1
f 12/2/1 10/2/1 11/2/1
f 15/2/1 14/2/1 13/2/1
f 16/2/1 14/2/1 15/2/1
f 19/2/1 18/2/1 17/2/1
f 20/2/1 18/2/1 19/2/1
f 23/2/1 22/2/1 21/2/1
f 24/2/1 22/2/1 23/2/1
f 25/2/2 26/2/2 27/2/2
f 27/2/2 26/2/2 28/2/2
f 29/2/2 30/2/2 31/2/2
f 31/2/2 30/2/2 32/2/2
f 33/2/2 34/2/2 35/2/2
f 35/2/2 34/2/2 36/2/2
f 37/2/2 38/2/2 39/2/2
f 39/2/2 38/2/2 40/2/2
f 41/2/2 42/2/2 45/2/2
f 42/1/2 43/1/2 46/1/2
f 45/2/2 42/2/2 46/2/2
f 43/2/2 44/2/2 47/2/2
f 46/1/2 43/1/2 47/1/2
f 47/2/2 44/2/2 48/2/2
f 51/2/3 50/2/3 49/2/3
f 52/2/3 50/2/3 51/2/3
f 53/2/4 54/2/4 55/2/4
f 55/2/4 54/2/4 56/2/4
f 57/2/4 58/2/4 59/2/4
f 59/2/4 58/2/4 60/2/4
f 61/2/4 62/2/4 63/2/4
f 63/2/4 62/2/4 64/2/4
f 65/2/4 66/2/4 67/2/4
f 67/2/4 66/2/4 68/2/4
f 69/2/4 70/2/4 71/2/4
f 71/2/4 70/2/4 72/2/4
f 73/2/4 74/2/4 75/2/4
f 75/2/4 74/2/4 76/2/4
f 77/2/4 78/2/4 79/2/4
f 79/2/4 78/2/4 80/2/4
f 81/2/4 82/2/4 83/2/4
f 83/2/4 82/2/4 84/2/4
f 85/2/4 86/2/4 87/2/4
f 87/2/4 86/2/4 88/2/4
f 91/2/5 90/2/5 89/2/5
f 92/2/5 90/2/5 91/2/5
f 93/2/5 90/2/5 92/2/5
f 94/2/5 90/2/5 93/2/5
f 95/2/5 90/2/5 94/2/5
f 96/2/5 90/2/5 95/2/5
f 97/2/5 90/2/5 96/2/5
f 98/2/5 90/2/5 97/2/5
f 99/2/5 90/2/5 98/2/5
f 100/2/5 90/2/5 99/2/5
f 101/1/5 92/1/5 91/1/5
f 102/2/5 93/2/5 92/2/5
f 102/1/5 92/1/5 101/1/5
f 103/1/5 94/1/5 93/1/5
f 103/2/5 93/2/5 102/2/5
f 104/2/5 95/2/5 94/2/5
f 104/1/5 94/1/5 103/1/5
f 105/1/5 96/1/5 95/1/5
f 105/2/5 95/2/5 104/2/5
f 106/2/5 97/2/5 96/2/5
f 106/1/5 96/1/5 105/1/5
f 107/1/5 98/1/5 97/1/5
f 107/2/5 97/2/5 106/2/5
f 108/2/5 99/2/5 98/2/5
f 108/1/5 98/1/5 107/1/5
f 109/1/5 100/1/5 99/1/5
f 109/2/5 99/2/5 108/2/5
f 110/1/5 100/1/5 109/1/5
f 111/2/5 102/2/5 101/2/5
f 112/2/5 102/2/5 111/2/5
f 113/2/5 104/2/5 103/2/5
f 114/2/5 104/2/5 113/2/5
f 115/2/5 106/2/5 105/2/5
f 116/2/5 106/2/5 115/2/5
f 117/2/5 108/2/5 107/2/5
f 118/2/5 108/2/5 117/2/5
f 119/2/5 110/2/5 109/2/5
f 120/2/5 110/2/5 119/2/5
f 121/2/6 122/2/6 123/2/6
f 123/2/6 122/2/6 124/2/6
f 124/2/6 122/2/6 125/2/6
f 125/2/6 122/2/6 126/2/6
f 126/2/6 122/2/6 127/2/6
f 127/2/6 122/2/6 128/2/6
f 128/2/6 122/2/6 129/2/6
f 129/2/6 122/2/6 130/2/6
f 130/2/6 122/2/6 131/2/6
f 131/2/6 122/2/6 132/2/6
f 123/1/6 124/1/6 133/1/6
f 124/2/6 125/2/6 134/2/6
f 133/1/6 124/1/6 134/1/6
f 125/1/6 126/1/6 135/1/6
f 134/2/6 125/2/6 135/2/6
f 126/2/6 127/2/6 136/2/6
f 135/1/6 126/1/6 136/1/6
f 127/1/6 128/1/6 137/1/6
f 136/2/6 127/2/6 137/2/6
f 128/2/6 129/2/6 138/2/6
f 137/1/6 128/1/6 138/1/6
f 129/1/6 130/1/6 139/1/6
f 138/2/6 129/2/6 139/2/6
f 130/2/6 131/2/6 140/2/6
f 139/1/6 130/1/6 140/1/6
f 131/1/6 132/1/6 141/1/6
f 140/2/6 131/2/6 141/2/6
f 141/1/6 132/1/6 142/1/6
f 133/2/6 134/2/6 143/2/6
f 143/2/6 134/2/6 144/2/6
f 135/2/6 136/2/6 145/2/6
f 145/2/6 136/2/6 146/2/6
f 137/2/6 138/2/6 147/2/6
f 147/2/6 138/2/6 148/2/6
f 139/2/6 140/2/6 149/2/6
f 149/2/6 140/2/6 150/2/6
f 141/2/6 142/2/6 151/2/6
f 151/2/6 142/2/6 152/2/6
